<svg width="1000" height="1000" viewBox="0 0 1000 1000" fill="none" xmlns="http://www.w3.org/2000/svg">
<rect x="25" y="25" width="950" height="950" rx="475" fill="#0073DD"/>
<rect x="25" y="25" width="950" height="950" rx="475" stroke="#E3E3E3" stroke-width="50"/>
<path d="M626.441 674.6C626.441 673.63 626.179 672.678 625.682 671.844C625.186 671.01 624.473 670.326 623.62 669.863C602.229 658.375 582.719 640.793 574.137 631.966C572.862 630.631 571.161 629.781 569.327 629.563C567.492 629.346 565.639 629.774 564.086 630.774C524.315 656.37 475.891 656.386 436.112 630.814C434.546 629.803 432.675 629.373 430.824 629.598C428.973 629.823 427.26 630.689 425.982 632.045C417.471 640.951 398.175 658.336 376.649 669.744C375.793 670.174 375.062 670.815 374.524 671.607C373.986 672.399 373.659 673.315 373.575 674.268C373.511 675.08 373.635 675.895 373.936 676.652C374.237 677.408 374.709 678.085 375.313 678.631C375.918 679.176 376.64 679.575 377.424 679.798C378.208 680.02 379.032 680.06 379.834 679.913C396.31 676.613 412.232 669.113 427.404 661.099C428.377 660.587 429.459 660.316 430.559 660.308C431.659 660.299 432.745 660.555 433.726 661.052C454.267 671.486 476.985 676.924 500.028 676.924C523.072 676.924 545.789 671.486 566.33 661.052C567.322 660.55 568.42 660.292 569.532 660.3C570.645 660.308 571.739 660.582 572.723 661.099C587.816 668.994 603.715 676.566 620.135 679.89C620.911 680.039 621.711 680.013 622.476 679.815C623.241 679.616 623.952 679.25 624.557 678.743C625.163 678.235 625.647 677.6 625.976 676.882C626.304 676.164 626.469 675.381 626.457 674.592L626.441 674.6ZM674.415 495.989C671.657 489.365 665.801 484.234 657.899 481.502L639.084 474.017V408.425C639.084 395.024 633.756 382.172 624.272 372.696C614.788 363.22 601.924 357.896 588.511 357.896H563.225V351.58C563.225 343.205 559.895 335.172 553.967 329.25C548.039 323.327 540 320 531.617 320H468.4C460.017 320 451.977 323.327 446.05 329.25C440.122 335.172 436.792 343.205 436.792 351.58V357.896H411.505C398.092 357.896 385.229 363.22 375.745 372.696C366.26 382.172 360.932 395.024 360.932 408.425V474.073L342.299 481.486C334.444 484.091 328.368 489.381 325.586 496.045C323.65 500.695 321.438 507.887 324.559 516.935L324.638 517.172L361.509 611.471C362.867 614.935 365.244 617.907 368.326 619.996C371.408 622.085 375.051 623.192 378.775 623.171C379.17 623.171 379.565 623.171 379.984 623.132C404.733 621.553 424.236 609.497 437.353 598.175C456.089 614.337 478.128 623.171 500.008 623.171C521.889 623.171 543.809 614.329 562.545 598.144C575.655 609.481 595.181 621.569 619.922 623.132C623.839 623.407 627.741 622.426 631.062 620.333C634.383 618.241 636.95 615.144 638.389 611.494L675.252 517.543C677.844 511.156 677.544 503.521 674.415 495.989ZM510.281 422.802L509.38 422.486C503.277 420.567 496.732 420.567 490.629 422.486L490.17 422.628L390.549 462.285C390.069 462.476 389.55 462.547 389.037 462.491C388.523 462.435 388.032 462.254 387.604 461.964C387.177 461.674 386.827 461.284 386.586 460.828C386.344 460.372 386.218 459.864 386.219 459.348V408.425C386.219 401.724 388.883 395.298 393.625 390.56C398.367 385.822 404.799 383.161 411.505 383.161H588.511C595.218 383.161 601.649 385.822 606.392 390.56C611.134 395.298 613.798 401.724 613.798 408.425V459.301C613.798 459.817 613.672 460.325 613.431 460.781C613.189 461.237 612.84 461.627 612.412 461.917C611.985 462.207 611.493 462.387 610.98 462.443C610.467 462.499 609.947 462.429 609.468 462.238L510.281 422.802Z" fill="#E3E3E3"/>
</svg>
