<svg width="1000" height="1000" viewBox="0 0 1000 1000" fill="none" xmlns="http://www.w3.org/2000/svg">
<rect x="25" y="25" width="950" height="950" rx="475" fill="#0073DD"/>
<rect x="25" y="25" width="950" height="950" rx="475" stroke="#E3E3E3" stroke-width="50"/>
<path d="M363.376 342.496C363.376 330.053 373.435 320 385.885 320H655.991C668.441 320 678.5 330.053 678.5 342.496C678.5 354.938 668.441 364.991 655.991 364.991H543.447V409.982H565.956C628.136 409.982 678.5 460.316 678.5 522.46V567.452C678.5 579.895 668.441 589.947 655.991 589.947H543.447H498.429C484.291 589.947 470.926 583.269 462.415 571.951L412.192 505.026C409.73 501.722 406.354 499.192 402.556 497.645L306.541 459.262C299.859 456.591 294.795 450.826 293.036 443.796L276.858 378.981C275.029 371.88 280.445 364.991 287.761 364.991H307.104C314.208 364.991 320.891 368.295 325.111 373.989L352.122 409.982H498.429V364.991H385.885C373.435 364.991 363.376 354.938 363.376 342.496ZM543.447 544.956H633.482V522.46C633.482 485.202 603.236 454.974 565.956 454.974H543.447V544.956ZM716.906 619.051C725.698 627.838 725.698 642.109 716.906 650.896L714.162 653.638C697.281 670.51 674.35 680 650.505 680L453.412 679.93C440.961 679.93 430.903 669.877 430.903 657.434C430.903 644.991 440.961 634.939 453.412 634.939H650.505C662.462 634.939 673.928 630.228 682.369 621.793L685.112 619.051C693.904 610.264 708.183 610.264 716.976 619.051H716.906Z" fill="#E3E3E3"/>
</svg>
