<svg width="1000" height="1000" viewBox="0 0 1000 1000" fill="none" xmlns="http://www.w3.org/2000/svg">
<rect x="25" y="25" width="950" height="950" rx="475" fill="#0073DD"/>
<rect x="25" y="25" width="950" height="950" rx="475" stroke="#E3E3E3" stroke-width="50"/>
<path d="M576.64 308.579C557.18 287.569 530 275.999 500 275.999C469.84 275.999 442.57 287.499 423.2 308.379C403.62 329.489 394.08 358.179 396.32 389.159C400.76 450.279 447.27 499.999 500 499.999C552.73 499.999 599.16 450.289 603.67 389.179C605.94 358.479 596.34 329.849 576.64 308.579ZM676 723.999H324C319.393 724.058 314.83 723.091 310.643 721.165C306.457 719.24 302.753 716.406 299.8 712.869C293.3 705.099 290.68 694.489 292.62 683.759C301.06 636.939 327.4 597.609 368.8 569.999C405.58 545.489 452.17 531.999 500 531.999C547.83 531.999 594.42 545.499 631.2 569.999C672.6 597.599 698.94 636.929 707.38 683.749C709.32 694.479 706.7 705.089 700.2 712.859C697.248 716.397 693.544 719.234 689.358 721.161C685.171 723.088 680.608 724.057 676 723.999Z" fill="#E3E3E3"/>
</svg>
