<svg width="1000" height="1000" viewBox="0 0 1000 1000" fill="none" xmlns="http://www.w3.org/2000/svg">
<rect x="25" y="25" width="950" height="950" rx="475" fill="#0073DD"/>
<rect x="25" y="25" width="950" height="950" rx="475" stroke="#E3E3E3" stroke-width="50"/>
<path d="M440.009 680H416.994C414.681 679.999 412.406 679.418 410.375 678.31C408.345 677.202 406.625 675.602 405.372 673.656C404.118 671.711 403.373 669.482 403.202 667.174C403.032 664.865 403.443 662.551 404.397 660.442L460.129 537.341L376.444 535.481L345.924 572.493C340.105 579.814 335.462 583.077 323.617 583.077H308.123C305.67 583.156 303.234 582.642 301.022 581.578C298.809 580.515 296.885 578.933 295.413 576.967C293.356 574.189 291.333 569.482 293.304 562.766L310.44 501.324C310.57 500.865 310.726 500.407 310.898 499.957C310.907 499.914 310.907 499.87 310.898 499.827C310.72 499.377 310.567 498.918 310.44 498.451L293.287 436.619C291.428 430.034 293.459 425.43 295.5 422.721C296.87 420.901 298.648 419.429 300.69 418.422C302.732 417.415 304.982 416.901 307.259 416.923H323.617C332.462 416.923 341.047 420.895 346.096 427.308L375.986 463.697L460.129 462.451L404.414 339.566C403.459 337.459 403.046 335.145 403.215 332.837C403.383 330.529 404.127 328.299 405.379 326.353C406.63 324.407 408.349 322.806 410.378 321.696C412.407 320.586 414.681 320.003 416.994 320H440.26C443.506 320.065 446.696 320.862 449.592 322.33C452.488 323.798 455.017 325.9 456.99 328.481L565.109 460.019L615.057 458.704C618.714 458.505 628.847 458.436 631.19 458.436C678.968 458.462 707.5 473.987 707.5 500C707.5 508.187 704.232 523.365 682.366 533.023C669.458 538.735 652.235 541.625 631.173 541.625C628.856 541.625 618.749 541.556 615.039 541.357L565.1 540.024L456.714 671.563C454.739 674.132 452.212 676.224 449.321 677.684C446.43 679.145 443.247 679.936 440.009 680Z" fill="#E3E3E3"/>
</svg>
