<svg width="1000" height="1000" viewBox="0 0 1000 1000" fill="none" xmlns="http://www.w3.org/2000/svg">
<rect width="1000" height="1000" rx="500" fill="#333333"/>
<path d="M872.284 531.598C866.658 468.448 857.391 456.15 853.891 451.524C845.843 440.835 832.966 433.85 819.339 426.52C818.568 426.113 817.903 425.532 817.395 424.823C816.888 424.115 816.552 423.298 816.414 422.437C816.276 421.576 816.34 420.695 816.601 419.863C816.862 419.032 817.312 418.272 817.917 417.644C820.44 415.085 822.38 412.009 823.602 408.629C824.824 405.249 825.3 401.644 824.996 398.063C824.408 391.712 821.455 385.814 816.723 381.539C811.99 377.264 805.823 374.923 799.445 374.982H775.067C774.022 374.988 772.978 375.056 771.941 375.185C771.23 374.876 770.492 374.63 769.738 374.45C755.298 343.93 735.53 302.143 694.555 281.749C633.78 251.526 521.826 249.963 499.948 249.963C478.07 249.963 366.116 251.526 305.42 281.702C264.445 302.096 244.676 343.883 230.237 374.403L230.112 374.653C229.391 374.755 228.684 374.933 228.002 375.185C226.965 375.056 225.921 374.988 224.876 374.982H200.451C194.073 374.923 187.907 377.264 183.174 381.539C178.441 385.814 175.488 391.712 174.9 398.063C174.623 401.636 175.12 405.227 176.358 408.59C177.596 411.954 179.545 415.01 182.073 417.55C182.678 418.178 183.129 418.938 183.39 419.77C183.65 420.601 183.714 421.482 183.576 422.343C183.439 423.204 183.103 424.021 182.595 424.729C182.087 425.438 181.422 426.019 180.651 426.427C167.024 433.803 154.085 440.788 146.099 451.43C142.599 456.118 133.347 468.355 127.706 531.505C124.58 567.041 124.112 603.828 126.565 627.519C131.707 676.745 141.349 706.499 141.755 707.734C143.234 712.226 145.958 716.207 149.609 719.214C153.261 722.221 157.69 724.13 162.383 724.72V725.033C162.383 731.664 165.017 738.024 169.706 742.713C174.395 747.402 180.755 750.037 187.387 750.037H274.899C281.531 750.037 287.891 747.402 292.58 742.713C297.269 738.024 299.903 731.664 299.903 725.033C313.358 725.033 322.719 722.626 332.642 720.064C346.969 716.203 361.613 713.635 376.399 712.391C424.078 707.843 471.491 706.28 499.948 706.28C527.827 706.28 577.335 707.843 625.092 712.391C639.936 713.638 654.637 716.216 669.02 720.095C678.521 722.533 687.538 724.783 700.025 725.017C700.025 731.649 702.659 738.009 707.348 742.698C712.037 747.387 718.397 750.021 725.028 750.021H812.541C819.172 750.021 825.532 747.387 830.221 742.698C834.91 738.009 837.545 731.649 837.545 725.017V724.83C842.249 724.251 846.692 722.346 850.355 719.339C854.018 716.331 856.751 712.344 858.235 707.843C858.642 706.608 868.284 676.854 873.425 627.628C875.879 603.921 875.441 567.197 872.284 531.598ZM275.431 395.781C287.933 369.215 302.232 339.148 327.689 326.474C364.475 308.159 440.721 299.908 499.948 299.908C559.176 299.908 635.421 308.097 672.208 326.474C697.665 339.148 711.901 369.231 724.466 395.781L726.028 399.173C726.942 401.103 727.346 403.236 727.202 405.367C727.057 407.498 726.369 409.556 725.203 411.346C724.038 413.135 722.433 414.596 720.542 415.59C718.651 416.583 716.537 417.075 714.402 417.019C662.472 415.613 553.081 411.112 499.948 411.112C446.815 411.112 337.424 415.722 285.417 417.128C283.281 417.184 281.168 416.692 279.277 415.699C277.386 414.706 275.781 413.245 274.615 411.455C273.449 409.666 272.761 407.607 272.617 405.476C272.472 403.345 272.876 401.213 273.79 399.282C274.337 398.126 274.915 396.954 275.431 395.781ZM294.074 520.222C267.192 523.457 240.138 525.054 213.062 525.004C196.497 525.004 179.417 520.315 176.244 505.563C174.072 495.64 174.307 490.061 175.479 484.451C176.463 479.684 178.026 476.215 185.839 474.996C206.155 471.871 217.516 475.793 250.771 485.592C272.821 492.077 288.73 500.719 297.793 507.564C302.341 510.939 299.919 519.753 294.074 520.222ZM640.031 648.366C619.466 650.71 578.335 649.85 500.417 649.85C422.499 649.85 381.384 650.71 360.818 648.366C339.597 646.006 312.546 625.94 331.017 608.063C343.316 596.28 372.008 587.466 410.216 582.512C448.425 577.558 464.599 575.011 500.261 575.011C535.922 575.011 550.456 576.574 590.305 582.528C630.155 588.482 660.269 597.405 669.504 608.078C686.351 627.206 661.238 645.881 640.031 648.459V648.366ZM823.652 505.548C820.527 520.362 803.337 524.988 786.834 524.988C759.24 524.994 731.669 523.398 704.26 520.206C699.478 519.753 697.258 511.361 702.103 507.548C711.026 500.531 727.107 492.061 749.126 485.576C782.38 475.778 801.555 471.855 818.026 475.121C822.043 475.918 824.168 480.231 824.418 482.935C825.52 490.463 825.261 498.127 823.652 505.563V505.548Z" fill="#E3E3E3"/>
</svg>
