<svg width="1000" height="1000" viewBox="0 0 1000 1000" fill="none" xmlns="http://www.w3.org/2000/svg">
<rect width="1000" height="1000" rx="500" fill="#333333"/>
<path d="M507.529 290.484C505.513 288.555 502.83 287.479 500.04 287.479C497.25 287.479 494.568 288.555 492.552 290.484L243.25 528.641C242.192 529.653 241.349 530.87 240.774 532.218C240.2 533.566 239.904 535.016 239.906 536.481L239.865 759.999C239.865 771.492 244.43 782.514 252.557 790.64C260.684 798.767 271.706 803.333 283.198 803.333H413.333C419.08 803.333 424.591 801.05 428.654 796.987C432.717 792.923 435 787.412 435 781.666V597.5C435 594.627 436.141 591.871 438.173 589.839C440.205 587.808 442.96 586.666 445.833 586.666H554.166C557.04 586.666 559.795 587.808 561.827 589.839C563.858 591.871 565 594.627 565 597.5V781.666C565 787.412 567.282 792.923 571.346 796.987C575.409 801.05 580.92 803.333 586.666 803.333H716.747C728.24 803.333 739.262 798.767 747.388 790.64C755.515 782.514 760.08 771.492 760.08 759.999V536.481C760.082 535.016 759.787 533.566 759.212 532.218C758.637 530.87 757.794 529.653 756.736 528.641L507.529 290.484Z" fill="#E3E3E3"/>
<path d="M818.106 483.953L716.815 387.049V240.001C716.815 234.254 714.532 228.743 710.469 224.68C706.405 220.617 700.894 218.334 695.148 218.334H630.148C624.402 218.334 618.891 220.617 614.828 224.68C610.764 228.743 608.482 234.254 608.482 240.001V283.334L530.049 208.34C522.709 200.919 511.794 196.667 500 196.667C488.246 196.667 477.358 200.919 470.019 208.354L181.988 483.926C173.565 492.051 172.509 505.417 180.173 514.219C182.098 516.44 184.455 518.247 187.1 519.529C189.745 520.811 192.624 521.542 195.56 521.676C198.496 521.81 201.429 521.346 204.181 520.311C206.932 519.275 209.443 517.691 211.563 515.654L492.552 247.151C494.568 245.222 497.25 244.146 500.04 244.146C502.83 244.146 505.513 245.222 507.529 247.151L788.545 515.654C792.684 519.624 798.229 521.79 803.963 521.679C809.697 521.567 815.154 519.186 819.135 515.058C827.45 506.446 826.759 492.227 818.106 483.953Z" fill="#E3E3E3"/>
</svg>
