<svg width="1000" height="1000" viewBox="0 0 1000 1000" fill="none" xmlns="http://www.w3.org/2000/svg">
<rect width="1000" height="1000" rx="500" fill="#333333"/>
<path d="M227.136 271.777L183.454 375.756H805.748L805.329 271.779H401.095V356.976H378.112V271.779H352.555V356.976H329.58V271.779H302.868V356.976H279.886V271.779L227.136 271.777ZM821.367 296.231V358.529H850V296.231H821.367ZM192.708 398.737L224.219 447.789L150 717.231L305.792 728.223L338.795 578.075H516.129L538.597 455.115L806.039 449.181L805.84 398.738H192.706L192.708 398.737ZM509.366 455.764L492.252 549.445H345.086L364.974 458.97L384.172 458.544L380.764 512.936L402.616 533.737L404.153 482.179L441.983 457.26L509.368 455.764H509.366Z" fill="#E3E3E3"/>
</svg>
