<svg width="1000" height="1000" viewBox="0 0 1000 1000" fill="none" xmlns="http://www.w3.org/2000/svg">
<rect x="25" y="25" width="950" height="950" rx="475" fill="#ff3b30"/>
<rect x="25" y="25" width="950" height="950" rx="475" stroke="#E3E3E3" stroke-width="50"/>
<path d="M467.875 320.08C457.193 320.08 448.6 328.677 448.6 339.362C448.6 350.047 457.193 358.643 467.875 358.643H514.215L527.387 382.986L448.6 448.623L412.218 412.229C402.581 402.589 389.49 397.206 375.837 397.206H294.4C280.185 397.206 268.7 408.694 268.7 422.915V448.623H345.8C416.796 448.623 474.3 506.146 474.3 577.166C474.3 586.003 473.417 594.599 471.73 602.874H528.27C526.583 594.599 525.7 586.003 525.7 577.166C525.7 535.229 545.778 497.951 576.859 474.492L589.227 497.469C566.178 516.349 551.4 545.03 551.4 577.166C551.4 633.966 597.419 680 654.2 680C710.981 680 757 633.966 757 577.166C757 520.366 710.981 474.332 654.2 474.332C643.358 474.332 632.917 476.019 623.119 479.152L578.867 397.206H628.5C642.715 397.206 654.2 385.717 654.2 371.497V345.789C654.2 331.569 642.715 320.08 628.5 320.08H612.116C606.093 320.08 600.31 322.169 595.652 326.025L557.584 357.759L546.34 336.871C540.718 326.507 529.876 320 518.07 320L467.875 320.08ZM614.606 544.387L637.254 586.324C642.314 595.724 654.039 599.179 663.356 594.117C672.672 589.056 676.206 577.327 671.146 568.007L648.498 526.07C650.345 525.829 652.273 525.749 654.2 525.749C682.55 525.749 705.6 548.806 705.6 577.166C705.6 605.526 682.55 628.583 654.2 628.583C625.85 628.583 602.8 605.526 602.8 577.166C602.8 564.713 607.217 553.305 614.606 544.387ZM393.425 596.447C385.796 615.327 367.324 628.583 345.8 628.583C317.45 628.583 294.4 605.526 294.4 577.166C294.4 548.806 317.45 525.749 345.8 525.749C367.404 525.749 385.876 539.005 393.425 557.884H446.753C437.758 510.324 395.995 474.332 345.8 474.332C289.019 474.332 243 520.366 243 577.166C243 633.966 289.019 680 345.8 680C395.995 680 437.758 644.008 446.833 596.447H393.506H393.425ZM345.8 602.874C352.616 602.874 359.153 600.166 363.973 595.345C368.792 590.523 371.5 583.984 371.5 577.166C371.5 570.347 368.792 563.808 363.973 558.987C359.153 554.166 352.616 551.457 345.8 551.457C338.984 551.457 332.447 554.166 327.627 558.987C322.808 563.808 320.1 570.347 320.1 577.166C320.1 583.984 322.808 590.523 327.627 595.345C332.447 600.166 338.984 602.874 345.8 602.874Z" fill="#E3E3E3"/>
</svg>
