<svg width="1000" height="1000" viewBox="0 0 1000 1000" fill="none" xmlns="http://www.w3.org/2000/svg">
<rect x="25" y="25" width="950" height="950" rx="475" fill="#ff3b30"/>
<rect x="25" y="25" width="950" height="950" rx="475" stroke="#E3E3E3" stroke-width="50"/>
<path d="M767.966 522.748C763.916 477.286 757.244 468.432 754.724 465.102C748.93 457.407 739.66 452.379 729.85 447.102C729.296 446.809 728.817 446.391 728.451 445.881C728.086 445.371 727.844 444.783 727.745 444.163C727.645 443.543 727.691 442.909 727.879 442.31C728.067 441.711 728.391 441.164 728.827 440.713C730.643 438.87 732.04 436.656 732.919 434.223C733.799 431.789 734.141 429.194 733.923 426.616C733.5 422.044 731.374 417.798 727.967 414.721C724.56 411.643 720.12 409.958 715.529 410H697.979C697.227 410.004 696.476 410.053 695.729 410.146C695.217 409.924 694.686 409.747 694.143 409.618C683.748 387.646 669.517 357.564 640.019 342.882C596.268 321.125 515.673 320 499.923 320C484.173 320 403.578 321.125 359.883 342.849C330.385 357.53 316.154 387.613 305.759 409.584L305.669 409.764C305.151 409.837 304.642 409.965 304.15 410.146C303.404 410.053 302.653 410.004 301.9 410H284.317C279.726 409.958 275.286 411.643 271.879 414.721C268.472 417.798 266.346 422.044 265.923 426.616C265.723 429.188 266.081 431.774 266.972 434.195C267.863 436.616 269.267 438.816 271.087 440.645C271.522 441.097 271.846 441.644 272.034 442.243C272.222 442.841 272.268 443.476 272.169 444.095C272.07 444.715 271.828 445.303 271.462 445.813C271.097 446.323 270.618 446.742 270.063 447.035C260.253 452.345 250.938 457.374 245.189 465.035C242.669 468.41 236.009 477.219 231.948 522.68C229.698 548.263 229.36 574.745 231.127 591.8C234.828 627.238 241.769 648.657 242.062 649.546C243.127 652.78 245.088 655.646 247.716 657.811C250.345 659.975 253.533 661.35 256.912 661.775V662C256.912 666.774 258.808 671.352 262.184 674.728C265.559 678.104 270.138 680 274.912 680H337.912C342.686 680 347.264 678.104 350.64 674.728C354.015 671.352 355.912 666.774 355.912 662C365.598 662 372.337 660.268 379.48 658.423C389.794 655.643 400.336 653.795 410.98 652.899C445.304 649.625 479.437 648.5 499.923 648.5C519.993 648.5 555.633 649.625 590.013 652.899C600.699 653.797 611.283 655.653 621.637 658.445C628.477 660.2 634.968 661.82 643.957 661.989C643.957 666.763 645.853 671.341 649.229 674.717C652.604 678.092 657.183 679.989 661.957 679.989H724.957C729.731 679.989 734.309 678.092 737.685 674.717C741.06 671.341 742.957 666.763 742.957 661.989V661.854C746.343 661.437 749.541 660.066 752.179 657.901C754.816 655.736 756.783 652.866 757.852 649.625C758.144 648.736 765.085 627.316 768.787 591.879C770.553 574.813 770.238 548.375 767.966 522.748ZM338.294 424.974C347.294 405.849 357.588 384.204 375.914 375.08C402.397 361.895 457.285 355.955 499.923 355.955C542.56 355.955 597.449 361.85 623.932 375.08C642.258 384.204 652.507 405.86 661.552 424.974L662.677 427.415C663.335 428.805 663.625 430.34 663.521 431.874C663.418 433.408 662.922 434.89 662.083 436.178C661.244 437.467 660.088 438.519 658.727 439.233C657.366 439.948 655.844 440.303 654.307 440.262C616.923 439.25 538.173 436.01 499.923 436.01C461.673 436.01 382.923 439.329 345.483 440.341C343.946 440.381 342.424 440.027 341.063 439.312C339.702 438.597 338.546 437.545 337.707 436.257C336.867 434.969 336.372 433.487 336.268 431.953C336.164 430.419 336.455 428.884 337.113 427.494C337.507 426.661 337.923 425.817 338.294 424.974ZM351.715 514.558C332.363 516.887 312.887 518.036 293.395 518C281.47 518 269.174 514.625 266.89 504.005C265.327 496.861 265.495 492.845 266.339 488.806C267.048 485.375 268.173 482.877 273.798 482C288.423 479.75 296.602 482.574 320.542 489.627C336.415 494.296 347.868 500.517 354.393 505.445C357.667 507.875 355.923 514.22 351.715 514.558ZM600.768 606.808C585.963 608.495 556.353 607.876 500.26 607.876C444.168 607.876 414.569 608.495 399.764 606.808C384.487 605.109 365.013 590.664 378.31 577.794C387.164 569.311 407.819 562.966 435.325 559.4C462.832 555.834 474.476 554 500.148 554C525.821 554 536.283 555.125 564.971 559.411C593.658 563.697 615.337 570.121 621.985 577.805C634.113 591.575 616.034 605.019 600.768 606.875V606.808ZM732.956 503.994C730.706 514.659 718.33 517.989 706.45 517.989C686.586 517.993 666.737 516.844 647.005 514.546C643.563 514.22 641.965 508.179 645.453 505.434C651.877 500.382 663.453 494.285 679.304 489.616C703.244 482.563 717.048 479.739 728.906 482.09C731.797 482.664 733.327 485.769 733.507 487.715C734.3 493.134 734.113 498.652 732.956 504.005V503.994Z" fill="#E3E3E3"/>
</svg>
